<svg xmlns="http://www.w3.org/2000/svg" width="320" height="200" viewBox="0 0 320 200" role="img" aria-labelledby="title desc">
  <title id="title">kolmafia-js logo</title>
  <desc id="desc">Martini glass and sword emblem for kolmafia-js.</desc>
  <defs>
    <linearGradient id="bg" x1="0" y1="0" x2="1" y2="1">
      <stop offset="0%" stop-color="#1f2430"/>
      <stop offset="100%" stop-color="#3b3048"/>
    </linearGradient>
  </defs>
  <rect width="320" height="200" rx="24" fill="url(#bg)"/>
  <g transform="translate(0 -6)">
    <path d="M95 44 L160 106 L225 44 Z" fill="#b7f0d7" stroke="#f3fff8" stroke-width="3"/>
    <line x1="160" y1="106" x2="160" y2="148" stroke="#f3fff8" stroke-width="6" stroke-linecap="round"/>
    <rect x="132" y="146" width="56" height="10" rx="5" fill="#f3fff8"/>
    <circle cx="188" cy="66" r="8" fill="#c33756"/>
    <line x1="188" y1="66" x2="176" y2="52" stroke="#c33756" stroke-width="3"/>
  </g>
  <g transform="translate(40 22) rotate(-26 120 70)">
    <rect x="108" y="26" width="24" height="76" rx="7" fill="#d6d8e0"/>
    <polygon points="120,2 104,28 136,28" fill="#e8edf8"/>
    <rect x="96" y="94" width="48" height="10" rx="5" fill="#c9b27f"/>
    <rect x="113" y="104" width="14" height="24" rx="4" fill="#9f815d"/>
  </g>
  <text x="160" y="176" text-anchor="middle" font-family="'Space Grotesk', Arial, sans-serif" font-size="20" font-weight="700" fill="#f3fff8" letter-spacing="0.8">KOLMAFIA-JS</text>
</svg>
