<svg xmlns="http://www.w3.org/2000/svg" width="320" height="200" viewBox="0 0 320 200" role="img" aria-labelledby="title desc">
  <title id="title">P2 poker logo</title>
  <desc id="desc">Neural poker logo with cards, chip, and node connections.</desc>
  <defs>
    <linearGradient id="bg" x1="0" y1="0" x2="1" y2="1">
      <stop offset="0%" stop-color="#0b2a3a"/>
      <stop offset="100%" stop-color="#1d4f61"/>
    </linearGradient>
  </defs>
  <rect width="320" height="200" rx="24" fill="url(#bg)"/>
  <g transform="translate(62 58) rotate(-8)">
    <rect x="0" y="0" width="74" height="98" rx="8" fill="#f8fbff"/>
    <text x="14" y="24" font-family="Georgia, serif" font-size="22" fill="#c51f2f">A</text>
    <path d="M37 44 C32 36 21 36 21 47 C21 54 28 60 37 67 C46 60 53 54 53 47 C53 36 42 36 37 44 Z" fill="#c51f2f"/>
  </g>
  <g transform="translate(172 64) rotate(8)">
    <rect x="0" y="0" width="74" height="98" rx="8" fill="#f8fbff"/>
    <text x="14" y="24" font-family="Georgia, serif" font-size="22" fill="#111">K</text>
    <path d="M37 36 L48 58 L72 58 L53 73 L61 96 L37 82 L13 96 L21 73 L2 58 L26 58 Z" fill="#111"/>
  </g>
  <circle cx="160" cy="142" r="30" fill="#0e1720" stroke="#e0f2ff" stroke-width="5"/>
  <circle cx="160" cy="142" r="18" fill="none" stroke="#e0f2ff" stroke-width="4" stroke-dasharray="5 6"/>
  <text x="160" y="148" text-anchor="middle" font-family="'Space Grotesk', Arial, sans-serif" font-size="14" font-weight="700" fill="#e0f2ff">P2</text>
</svg>
