<svg xmlns="http://www.w3.org/2000/svg" width="320" height="200" viewBox="0 0 320 200" role="img" aria-labelledby="title desc">
  <title id="title">Rebook logo</title>
  <desc id="desc">Open book with dewarping grid lines.</desc>
  <defs>
    <linearGradient id="bg" x1="0" y1="0" x2="1" y2="1">
      <stop offset="0%" stop-color="#3a2c22"/>
      <stop offset="100%" stop-color="#5a4032"/>
    </linearGradient>
  </defs>
  <rect width="320" height="200" rx="24" fill="url(#bg)"/>
  <g transform="translate(36 16)">
    <path d="M0 26 C34 8 78 8 120 26 L120 130 C80 112 38 112 0 130 Z" fill="#f8efe0"/>
    <path d="M248 26 C214 8 170 8 128 26 L128 130 C168 112 210 112 248 130 Z" fill="#f8efe0"/>
    <rect x="118" y="22" width="12" height="112" fill="#d8c1a2"/>
    <g stroke="#87674f" stroke-width="2" opacity="0.72" fill="none">
      <path d="M10 44 C42 30 78 30 110 44"/>
      <path d="M10 62 C42 48 78 48 110 62"/>
      <path d="M10 80 C42 66 78 66 110 80"/>
      <path d="M10 98 C42 84 78 84 110 98"/>
      <path d="M138 44 C170 30 206 30 238 44"/>
      <path d="M138 62 C170 48 206 48 238 62"/>
      <path d="M138 80 C170 66 206 66 238 80"/>
      <path d="M138 98 C170 84 206 84 238 98"/>
    </g>
  </g>
  <text x="160" y="178" text-anchor="middle" font-family="'Space Grotesk', Arial, sans-serif" font-size="24" font-weight="700" fill="#f8efe0" letter-spacing="1.4">REBOOK</text>
</svg>
